HIERARCHY
ROOT Hips
{
  OFFSET 3.13124 94.3669 -3.18751
  CHANNELS  6 Xposition Yposition Zposition Zrotation Xrotation Yrotation
  JOINT LeftUpLeg
  {
    OFFSET 8.64259 1.95398 -2.38835
    CHANNELS 3 Zrotation Xrotation Yrotation
    JOINT LeftLeg
    {
      OFFSET 43.7702 0 0
      CHANNELS 3 Zrotation Xrotation Yrotation
      JOINT LeftFoot
      {
        OFFSET 40.6238 0 0
        CHANNELS 3 Zrotation Xrotation Yrotation
        JOINT LeftToeBase
        {
          OFFSET 12.7242 0 0
          CHANNELS 3 Zrotation Xrotation Yrotation
          End Site
          {
            OFFSET 0 0 0
          }
        }
      }
    }
  }
  JOINT RightUpLeg
  {
    OFFSET -8.2249 1.95398 -2.59336
    CHANNELS 3 Zrotation Xrotation Yrotation
    JOINT RightLeg
    {
      OFFSET 43.5653 0 0
      CHANNELS 3 Zrotation Xrotation Yrotation
      JOINT RightFoot
      {
        OFFSET 40.6238 0 0
        CHANNELS 3 Zrotation Xrotation Yrotation
        JOINT RightToeBase
        {
          OFFSET 12.7242 0 0
          CHANNELS 3 Zrotation Xrotation Yrotation
          End Site
          {
            OFFSET 0 0 0
          }
        }
      }
    }
  }
  JOINT Spine
  {
    OFFSET 0.165834 0.87714 6.61349
    CHANNELS 3 Zrotation Xrotation Yrotation
    JOINT Spine1
    {
      OFFSET 7.38962 1.71661e-005 0
      CHANNELS 3 Zrotation Xrotation Yrotation
      JOINT Spine2
      {
        OFFSET 11.9445 1.14441e-005 0
        CHANNELS 3 Zrotation Xrotation Yrotation
        JOINT Spine3
        {
          OFFSET 14.7254 4.19617e-005 0
          CHANNELS 3 Zrotation Xrotation Yrotation
          JOINT Spine4
          {
            OFFSET 10.9679 0 0
            CHANNELS 3 Zrotation Xrotation Yrotation
            JOINT RightShoulder
            {
              OFFSET 2.46616 -1.6653 3.69651
              CHANNELS 3 Zrotation Xrotation Yrotation
              JOINT RightArm
              {
                OFFSET 13.0012 0 0
                CHANNELS 3 Zrotation Xrotation Yrotation
                JOINT RightForeArm
                {
                  OFFSET 28.7848 1.52588e-005 0
                  CHANNELS 3 Zrotation Xrotation Yrotation
                  JOINT RightHand
                  {
                    OFFSET 26.5688 1.52588e-005 0
                    CHANNELS 3 Zrotation Xrotation Yrotation
                    End Site
                    {
                      OFFSET 0 0 0
                    }
                  }
                }
              }
            }
            JOINT LeftShoulder
            {
              OFFSET 2.38034 -1.29275 -3.75231
              CHANNELS 3 Zrotation Xrotation Yrotation
              JOINT LeftArm
              {
                OFFSET 16.3182 6.10352e-005 0
                CHANNELS 3 Zrotation Xrotation Yrotation
                JOINT LeftForeArm
                {
                  OFFSET 27.0901 0 0
                  CHANNELS 3 Zrotation Xrotation Yrotation
                  JOINT LeftHand
                  {
                    OFFSET 24.5451 1.52588e-005 0
                    CHANNELS 3 Zrotation Xrotation Yrotation
                    End Site
                    {
                      OFFSET 0 0 0
                    }
                  }
                }
              }
            }
            JOINT Neck
            {
              OFFSET 5.0226 -0.0266342 0
              CHANNELS 3 Zrotation Xrotation Yrotation
              JOINT Head
              {
                OFFSET 6.69363 2.86102e-005 0
                CHANNELS 3 Zrotation Xrotation Yrotation
                End Site
                {
                  OFFSET 0 0 0
                }
              }
            }
          }
        }
      }
    }
  }
}
MOTION
Frames:	7
Frame Time:	0.0333333
29.6831 92.5215 27.6815 71.1027 -21.9517 81.634 173.908 -6.91959 82.6362 -5.59973 -35.944 -2.60802 -20.5629 3.7595 4.8976 28.7808 2.50881e-006 2.15835e-006 179.983 29.3459 93.3234 -24.3885 10.9939 0.581736 67.6682 -3.86611 -2.06492 28.7808 1.36115e-005 7.39055e-006 -0.532906 5.84562 -91.1937 15.2002 -1.23698 -0.397354 3.52976 -1.25328 -0.342535 -19.0086 -1.06037 -0.750728 1.00406 -1.06039 -0.75075 90.5282 -47.6994 -100.537 40.9913 -3.93215 -0.437768 39.3529 16.2828 -75.4682 24.9846 5.49801 18.7543 -103.057 -45.2115 57.5622 -35.5045 1.92231 -1.36521 -11.327 -7.94597 -64.5653 -20.6772 -2.85661 12.6611 0.928938 -2.11427 -15.3049 -18.0316 -1.42614 11.366 
30.0292 92.703 27.7555 70.5577 -21.5551 80.9762 173.949 -7.18084 82.5538 -5.52097 -35.1011 -2.51801 -19.8779 3.84303 5.0773 28.7808 2.50881e-006 2.15835e-006 179.975 29.3347 92.7452 -23.6206 11.0852 0.588735 67.3899 -3.99864 -2.14382 28.7808 1.36115e-005 7.39055e-006 -0.605212 5.81722 -91.0563 15.2572 -1.35458 -0.316635 3.58697 -1.3672 -0.256703 -18.9525 -1.19679 -0.709815 1.06014 -1.19679 -0.709848 90.7521 -47.6762 -100.19 40.9063 -2.6753 0.302606 34.7078 16.6276 -72.2774 28.6587 6.35162 18.8846 -103.466 -45.652 57.1428 -35.5487 1.25275 -0.181724 -10.7843 -7.95129 -63.4964 -20.0479 -2.9614 13.9027 3.38187 -1.44704 -14.4262 -18.6656 -0.59388 11.0288 
30.4053 92.9182 27.8262 69.9141 -21.0419 80.37 174.117 -7.42767 82.654 -5.41936 -33.9679 -2.40007 -19.1811 3.90104 5.17218 28.7808 2.50881e-006 2.15835e-006 179.961 29.3705 92.1685 -22.7936 10.8405 0.575028 66.7607 -4.01624 -2.16767 28.7808 1.36115e-005 7.39055e-006 -0.684572 5.75993 -90.9363 15.3711 -1.50174 -0.288362 3.70103 -1.51297 -0.221965 -18.8397 -1.34562 -0.727526 1.17291 -1.34566 -0.727559 90.8319 -47.4216 -100.123 40.7123 -1.65648 1.14974 36.5676 18.359 -71.7506 28.4219 6.66379 20.3493 -104.064 -45.8779 56.375 -35.3265 0.216013 1.10915 -9.5809 -7.64917 -62.025 -21.3323 -3.07981 13.3927 5.12162 -0.681278 -13.4471 -18.5827 0.257671 10.6956 
30.7508 93.1944 27.8786 69.2299 -20.3017 79.7433 174.339 -7.61147 82.8494 -5.31083 -32.4689 -2.24788 -18.4757 3.93434 5.19906 28.7808 2.50881e-006 2.15835e-006 179.955 29.0795 91.4865 -21.2049 11.281 0.607507 66.4706 -3.52607 -1.91225 28.7808 1.36115e-005 7.39055e-006 -0.760265 5.74479 -90.8025 15.4014 -1.6291 -0.185498 3.73145 -1.63568 -0.113599 -18.8108 -1.498 -0.66662 1.20184 -1.49802 -0.666644 91.3749 -47.7848 -99.1842 40.7195 -1.01348 1.82015 35.8132 19.0723 -70.5194 27.5452 6.10592 18.99 -104.675 -45.5685 55.3264 -34.7813 -0.827672 2.17007 -8.15461 -6.95587 -61.3202 -22.6192 -3.36965 13.8498 8.38422 -0.444214 -13.7906 -19.2571 0.809307 11.2539 
31.0036 93.4096 27.8953 68.7113 -19.5234 79.1001 175.083 -6.57124 83.0876 -8.16944 -29.9499 -1.97648 -16.4324 3.64544 4.19081 28.7808 2.50881e-006 2.15835e-006 179.883 29.0358 90.7847 -20.1586 11.2527 0.608966 65.6246 -3.84925 -2.10148 28.7808 1.36115e-005 7.39055e-006 -0.813983 5.73141 -90.7118 15.4279 -1.73343 -0.116169 3.7581 -1.73689 -0.0397431 -18.7854 -1.61839 -0.631901 1.22726 -1.61839 -0.631911 91.9202 -47.584 -98.3645 40.0712 0.273667 2.00378 35.4098 20.2952 -69.0227 29.206 6.4498 18.8518 -105.181 -45.2988 54.4554 -34.3957 -1.5606 2.43869 -6.65809 -6.28149 -60.1106 -23.4251 -3.46496 13.6029 10.9844 0.0100819 -13.5219 -18.7266 1.52029 11.5301 
31.1442 93.5441 27.8046 67.7577 -18.6211 78.2475 175.871 -4.25029 83.3499 -12.7942 -27.3755 -1.72273 -13.5514 3.23167 2.96244 28.7808 2.50881e-006 2.15835e-006 179.768 29.873 90.0254 -19.7126 11.8463 0.648136 65.2736 -3.8322 -2.0991 28.7808 1.36115e-005 7.39055e-006 -0.863864 5.67703 -90.645 15.5384 -1.83149 0.000946987 3.86869 -1.82969 0.0815802 -18.6761 -1.74709 -0.549699 1.3365 -1.74709 -0.549717 92.4731 -47.5687 -97.4914 39.3577 1.24039 1.81161 33.8991 20.4086 -67.7486 28.0901 6.52402 20.123 -105.312 -44.6485 53.9494 -34.0634 -1.34094 0.82656 -4.1982 -4.68091 -60.3465 -21.2599 -4.75655 22.845 13.5932 0.485146 -13.8037 -17.6443 2.38165 12.2261 
31.2477 93.6615 27.746 66.9518 -17.5901 77.6096 176.716 -2.12566 84.0378 -18.5036 -28.5241 -1.70561 -11.7784 4.79043 6.67732 28.7808 2.50881e-006 2.15835e-006 179.615 30.0703 89.3554 -18.3564 12.2665 0.676646 64.9522 -4.13448 -2.26832 28.7808 1.36115e-005 7.39055e-006 -0.935969 5.62352 -90.731 15.652 -1.95555 0.104612 3.98253 -1.94905 0.190599 -18.564 -1.89655 -0.488156 1.44872 -1.89656 -0.488183 92.9416 -47.3145 -96.7952 38.5705 2.39639 1.54317 30.4166 20.0476 -65.2209 28.7584 6.42668 19.1907 -105.511 -43.922 53.2989 -32.2517 -3.79608 0.630804 -3.30206 -4.44581 -57.7639 -30.3666 -5.40869 16.7801 15.824 1.12591 -13.9558 -15.9532 3.40477 12.9567 
